<?xml version="1.0" encoding="UTF-8" standalone="no"?>
<!-- Created with Inkscape (http://www.inkscape.org/) -->

<svg
   xmlns:dc="http://purl.org/dc/elements/1.1/"
   xmlns:cc="http://creativecommons.org/ns#"
   xmlns:rdf="http://www.w3.org/1999/02/22-rdf-syntax-ns#"
   xmlns:svg="http://www.w3.org/2000/svg"
   xmlns="http://www.w3.org/2000/svg"
   xmlns:sodipodi="http://sodipodi.sourceforge.net/DTD/sodipodi-0.dtd"
   xmlns:inkscape="http://www.inkscape.org/namespaces/inkscape"
   width="600"
   height="722"
   viewBox="0 0 600.00001 722.00001"
   id="svg2"
   version="1.1"
   inkscape:version="0.91 r13725"
   sodipodi:docname="placer.svg">
  <defs
     id="defs4" />
  <sodipodi:namedview
     id="base"
     pagecolor="#ffffff"
     bordercolor="#666666"
     borderopacity="1.0"
     inkscape:pageopacity="0.0"
     inkscape:pageshadow="2"
     inkscape:zoom="0.7"
     inkscape:cx="-359.89576"
     inkscape:cy="182.27455"
     inkscape:document-units="px"
     inkscape:current-layer="g4144"
     showgrid="false"
     inkscape:window-width="1920"
     inkscape:window-height="1141"
     inkscape:window-x="0"
     inkscape:window-y="27"
     inkscape:window-maximized="1"
     units="px" />
  <metadata
     id="metadata7">
    <rdf:RDF>
      <cc:Work
         rdf:about="">
        <dc:format>image/svg+xml</dc:format>
        <dc:type
           rdf:resource="http://purl.org/dc/dcmitype/StillImage" />
        <dc:title />
      </cc:Work>
    </rdf:RDF>
  </metadata>
  <g
     inkscape:label="Layer 1"
     inkscape:groupmode="layer"
     id="layer1"
     transform="translate(0,-330.36214)">
    <g
       id="g4144"
       transform="translate(594.28564,817.14287)">
      <path
         style="opacity:1;fill:#d45500;fill-opacity:1;stroke:none;stroke-width:200;stroke-linecap:round;stroke-linejoin:round;stroke-miterlimit:4;stroke-dasharray:none;stroke-opacity:1"
         d="m -519.60793,-486.78076 c -41.37159,0 -74.67769,33.30805 -74.67769,74.67969 l 0,450.64258 c 0,41.37159 34.3743,74.34669 74.67769,88.96289 L -294.28566,235.2193 -68.963398,127.5044 C -30.284018,109.0138 5.71434,79.9131 5.71434,38.54151 l 0,-450.64258 c 0,-41.37164 -33.306138,-74.67969 -74.677738,-74.67969 z m 48.49767,64.57227 353.64919,0 c 32.466911,0 58.603202,26.13813 58.603202,58.60503 l 0,353.64736 c 0,32.46689 -26.136291,58.60499 -58.603202,58.60499 l -353.64919,0 c -32.46691,0 -58.60326,-26.1381 -58.60326,-58.60499 l 0,-353.64736 c 0,-32.4669 26.13635,-58.60503 58.60326,-58.60503 z"
         id="rect4138"
         inkscape:connector-curvature="0"
         sodipodi:nodetypes="cssscsssccccssccssc"
         inkscape:export-xdpi="18"
         inkscape:export-ydpi="18" />
    </g>
  </g>
</svg>
